<?xml version="1.0" encoding="UTF-8"?>
<svg xmlns="http://www.w3.org/2000/svg" xmlns:xlink="http://www.w3.org/1999/xlink" width="2500px" height="2344px" viewBox="0 0 1875 1758" version="1.1">
<defs>
<linearGradient id="linear0" gradientUnits="userSpaceOnUse" x1="0.5" y1="10.89396" x2="0.5" y2="-1.595" gradientTransform="matrix(1138.566406,0,0,100.890625,464.054688,731.777344)">
<stop offset="0.3033" style="stop-color:rgb(27.843137%,21.568627%,53.333333%);stop-opacity:1;"/>
<stop offset="0.872" style="stop-color:rgb(17.254902%,13.333333%,33.333333%);stop-opacity:1;"/>
</linearGradient>
<linearGradient id="linear1" gradientUnits="userSpaceOnUse" x1="0.49999" y1="8.96537" x2="0.49999" y2="-3.52359" gradientTransform="matrix(1138.550781,0,0,100.898437,464.070312,926.375)">
<stop offset="0.3033" style="stop-color:rgb(27.843137%,21.568627%,53.333333%);stop-opacity:1;"/>
<stop offset="0.872" style="stop-color:rgb(17.254902%,13.333333%,33.333333%);stop-opacity:1;"/>
</linearGradient>
<linearGradient id="linear2" gradientUnits="userSpaceOnUse" x1="0.49999" y1="2.1517" x2="0.49999" y2="-1.66715" gradientTransform="matrix(1035.734375,0,0,329.941406,515.476562,1120.964844)">
<stop offset="0.3033" style="stop-color:rgb(27.843137%,21.568627%,53.333333%);stop-opacity:1;"/>
<stop offset="0.8631" style="stop-color:rgb(17.254902%,13.333333%,33.333333%);stop-opacity:1;"/>
</linearGradient>
</defs>
<g id="surface1">
<path style=" stroke:none;fill-rule:nonzero;fill:rgb(17.254902%,13.333333%,33.333333%);fill-opacity:1;" d="M 515.492188 1120.964844 L 228.953125 1120.964844 C 266.894531 1251.101562 337.296875 1367.738281 440.359375 1470.828125 C 604.671875 1635.152344 802.25 1717.214844 1033.300781 1717.214844 C 1079.488281 1717.214844 1124.238281 1713.773438 1167.699219 1707.21875 C 1341.730469 1680.945312 1494.105469 1602.261719 1624.65625 1470.828125 C 1728.382812 1367.777344 1799.28125 1251.101562 1837.515625 1120.964844 Z M 357.496094 731.800781 L 207.808594 731.800781 C 202.230469 765.191406 198.589844 798.878906 196.910156 832.691406 L 1869.757812 832.691406 C 1868.050781 798.265625 1864.3125 764.683594 1858.792969 731.800781 M 196.910156 926.382812 C 198.601562 960.828125 202.316406 994.402344 207.808594 1027.273438 L 1858.820312 1027.273438 C 1864.441406 993.886719 1868.109375 960.195312 1869.808594 926.382812 M 1837.550781 638.085938 C 1799.355469 507.589844 1728.441406 390.402344 1624.660156 286.597656 C 1494.449219 156.394531 1342.515625 78.273438 1169.039062 51.996094 C 1124.117188 45.203125 1078.742188 41.808594 1033.308594 41.84375 C 802.257812 41.84375 604.664062 123.457031 440.367188 286.605469 C 337.265625 390.402344 266.820312 507.589844 228.910156 638.085938 "/>
<path style=" stroke:none;fill-rule:nonzero;fill:rgb(96.862745%,58.039216%,11.764706%);fill-opacity:1;" d="M 147.164062 879.566406 C 147.164062 437.644531 479.054688 70.464844 910.816406 5.882812 C 900.109375 5.492188 889.34375 5.0625 878.523438 5.0625 C 394.015625 5.070312 1.203125 396.605469 1.203125 879.566406 C 1.203125 1362.546875 394 1754.054688 878.523438 1754.054688 C 889.378906 1754.054688 900.140625 1753.644531 910.890625 1753.25 C 479.054688 1688.671875 147.164062 1321.488281 147.164062 879.566406 Z M 147.164062 879.566406 "/>
<path style=" stroke:none;fill-rule:nonzero;fill:url(#linear0);" d="M 1602.621094 832.667969 C 1599.886719 798.585938 1594.089844 764.820312 1585.304688 731.777344 L 481.382812 731.777344 C 472.589844 764.820312 466.792969 798.585938 464.054688 832.667969 Z M 1602.621094 832.667969 "/>
<path style=" stroke:none;fill-rule:nonzero;fill:url(#linear1);" d="M 1602.621094 926.375 L 464.070312 926.375 C 466.792969 960.460938 472.589844 994.230469 481.382812 1027.273438 L 1585.320312 1027.273438 C 1594.101562 994.226562 1599.890625 960.457031 1602.621094 926.375 Z M 1602.621094 926.375 "/>
<path style=" stroke:none;fill-rule:nonzero;fill:url(#linear2);" d="M 1033.34375 1450.90625 C 1262.59375 1450.90625 1460.214844 1315.839844 1551.210938 1120.964844 L 515.476562 1120.964844 C 606.480469 1315.839844 804.089844 1450.90625 1033.34375 1450.90625 Z M 1033.34375 1450.90625 "/>
<path style=" stroke:none;fill-rule:nonzero;fill:rgb(100%,100%,100%);fill-opacity:1;" d="M 379.6875 926.382812 L 1868.628906 926.382812 C 1869.417969 911.476562 1869.859375 896.46875 1869.859375 881.359375 C 1869.859375 865.011719 1869.265625 848.8125 1868.335938 832.675781 L 196.910156 832.675781 C 195.988281 848.789062 195.386719 865.011719 195.386719 881.359375 C 195.386719 896.46875 195.828125 911.476562 196.617188 926.382812 Z M 512.140625 638.085938 L 228.898438 638.085938 C 219.585938 668.597656 213.582031 699.902344 207.808594 731.800781 L 1853.503906 731.800781 C 1847.816406 700.152344 1840.292969 668.863281 1830.980469 638.085938 M 1745.894531 1027.257812 L 207.796875 1027.257812 C 213.40625 1059.132812 219.792969 1090.414062 228.949219 1120.964844 L 1836.460938 1120.964844 C 1845.648438 1090.183594 1853.042969 1058.894531 1858.601562 1027.257812 Z M 1745.894531 1027.257812 "/>
</g>
</svg>
