<?xml version="1.0" encoding="UTF-8"?>
<svg xmlns="http://www.w3.org/2000/svg" xmlns:xlink="http://www.w3.org/1999/xlink" width="1667px" height="2500px" viewBox="0 0 1250 1874" version="1.1">
<g id="surface1">
<path style=" stroke:none;fill-rule:nonzero;fill:rgb(10.196078%,73.72549%,99.607843%);fill-opacity:1;" d="M 625 937 C 625 764.507812 764.882812 624.667969 937.4375 624.667969 C 1109.988281 624.667969 1249.875 764.507812 1249.875 937 C 1249.875 1109.5 1109.988281 1249.332031 937.4375 1249.332031 C 764.882812 1249.332031 625 1109.5 625 937 Z M 625 937 "/>
<path style=" stroke:none;fill-rule:nonzero;fill:rgb(3.921569%,81.176471%,51.372549%);fill-opacity:1;" d="M 0.125 1561.667969 C 0.125 1389.171875 140.007812 1249.332031 312.5625 1249.332031 L 625 1249.332031 L 625 1561.667969 C 625 1734.164062 485.117188 1874 312.5625 1874 C 140.007812 1874 0.125 1734.164062 0.125 1561.667969 Z M 0.125 1561.667969 "/>
<path style=" stroke:none;fill-rule:nonzero;fill:rgb(100%,44.705882%,38.431373%);fill-opacity:1;" d="M 625 0.00390625 L 625 624.667969 L 937.4375 624.667969 C 1109.992188 624.667969 1249.875 484.832031 1249.875 312.332031 C 1249.875 139.835938 1109.992188 0.00390625 937.4375 0.00390625 Z M 625 0.00390625 "/>
<path style=" stroke:none;fill-rule:nonzero;fill:rgb(94.901961%,30.588235%,11.764706%);fill-opacity:1;" d="M 0.125 312.332031 C 0.125 484.832031 140.007812 624.667969 312.5625 624.667969 L 625 624.667969 L 625 0 L 312.5625 0 C 140.007812 0 0.125 139.839844 0.125 312.332031 Z M 0.125 312.332031 "/>
<path style=" stroke:none;fill-rule:nonzero;fill:rgb(63.529412%,34.901961%,100%);fill-opacity:1;" d="M 0.125 937 C 0.125 1109.5 140.007812 1249.332031 312.5625 1249.332031 L 625 1249.332031 L 625 624.667969 L 312.5625 624.667969 C 140.007812 624.667969 0.125 764.507812 0.125 937 Z M 0.125 937 "/>
</g>
</svg>
