<?xml version="1.0" encoding="UTF-8"?>
<svg xmlns="http://www.w3.org/2000/svg" xmlns:xlink="http://www.w3.org/1999/xlink" width="2500px" height="2419px" viewBox="0 0 1874 1814" version="1.1">
<g id="surface1">
<path style=" stroke:none;fill-rule:nonzero;fill:rgb(100%,50.196078%,50.196078%);fill-opacity:1;" d="M 881.777344 673.125 L 881.777344 844.949219 L 469.703125 432.847656 L 606.558594 295.9375 L 814.445312 504.042969 C 808.867188 519.066406 806.039062 534.972656 806.097656 551.003906 C 805.9375 602.828125 835.304688 650.21875 881.777344 673.125 Z M 1008.09375 697.90625 L 1072.144531 761.980469 L 1008.09375 826.191406 Z M 1400.050781 434.21875 L 1152.480469 681.613281 L 1069.132812 598.511719 C 1076.730469 578.109375 1079.265625 556.167969 1076.523438 534.574219 C 1067.910156 469.15625 1013.878906 419.195312 948.015625 415.734375 C 929.894531 414.78125 911.769531 417.578125 894.777344 423.949219 L 686.757812 215.160156 L 863.027344 39.367188 C 881.925781 20.421875 907.578125 9.777344 934.332031 9.777344 C 961.082031 9.777344 986.734375 20.421875 1005.632812 39.367188 Z M 1400.050781 434.21875 "/>
<path style=" stroke:none;fill-rule:nonzero;fill:rgb(50.196078%,70.196078%,100%);fill-opacity:1;" d="M 799.9375 1002.804688 L 425.5 1377.394531 L 53.933594 1009.242188 C 10.222656 963.753906 10.769531 891.683594 55.167969 846.867188 L 438.363281 463.515625 L 799.9375 826.464844 C 848.519531 875.199219 848.519531 954.074219 799.9375 1002.804688 Z M 799.9375 1002.804688 "/>
<path style=" stroke:none;fill-rule:nonzero;fill:rgb(100%,90.196078%,50.196078%);fill-opacity:1;" d="M 1008.78125 1047.4375 L 1008.78125 1204.75 C 1055.492188 1232.550781 1079.871094 1286.578125 1069.816406 1340.015625 C 1060.609375 1392.121094 1020.210938 1433.132812 968.269531 1443.109375 C 904.589844 1457.03125 840.484375 1421.472656 818.554688 1360.066406 C 796.625 1298.660156 823.695312 1230.511719 881.777344 1200.914062 L 881.777344 1027.039062 C 881.304688 1021.996094 878.09375 1017.628906 873.421875 1015.679688 C 868.75 1013.726562 863.382812 1014.515625 859.46875 1017.730469 L 467.101562 1410.113281 L 870.828125 1814 C 909.996094 1853.132812 973.445312 1853.132812 1012.613281 1814 L 1393.484375 1433.664062 Z M 1008.78125 1047.4375 "/>
<path style=" stroke:none;fill-rule:nonzero;fill:rgb(55.294118%,82.745098%,37.254902%);fill-opacity:1;" d="M 1809.9375 1029.09375 L 1446.71875 1392.589844 L 1055.585938 1001.300781 C 1009.886719 955.542969 1009.886719 881.398438 1055.585938 835.640625 L 1100.609375 790.183594 L 1200.378906 889.71875 C 1178.34375 949.566406 1200.90625 1016.691406 1254.609375 1051.066406 C 1308.3125 1085.4375 1378.691406 1077.792969 1423.769531 1032.695312 C 1468.851562 987.597656 1476.492188 917.191406 1442.132812 863.464844 C 1407.773438 809.742188 1340.675781 787.171875 1280.851562 809.214844 L 1181.628906 710.09375 L 1435.359375 456.398438 L 1809.9375 831.257812 C 1836.253906 857.441406 1851.050781 893.042969 1851.050781 930.175781 C 1851.050781 967.308594 1836.253906 1002.90625 1809.9375 1029.09375 Z M 1809.9375 1029.09375 "/>
</g>
</svg>
