<?xml version="1.0" encoding="UTF-8"?>
<svg xmlns="http://www.w3.org/2000/svg" xmlns:xlink="http://www.w3.org/1999/xlink" width="2500px" height="2432px" viewBox="0 0 1875 1824" version="1.1">
<g id="surface1">
<path style=" stroke:none;fill-rule:nonzero;fill:rgb(8.627451%,8.627451%,7.843137%);fill-opacity:1;" d="M 933.875 0 C 418.175781 0 0 418.101562 0 933.875 C 0 1346.492188 267.582031 1696.546875 638.640625 1820.03125 C 685.3125 1828.675781 702.453125 1799.773438 702.453125 1775.105469 C 702.453125 1752.839844 701.578125 1679.265625 701.183594 1601.234375 C 441.371094 1657.726562 386.550781 1491.050781 386.550781 1491.050781 C 344.070312 1383.105469 282.863281 1354.410156 282.863281 1354.410156 C 198.136719 1296.445312 289.25 1297.632812 289.25 1297.632812 C 383.027344 1304.222656 432.40625 1393.871094 432.40625 1393.871094 C 515.699219 1536.644531 650.875 1495.363281 704.164062 1471.507812 C 712.542969 1411.140625 736.75 1369.949219 763.453125 1346.628906 C 556.03125 1323.011719 337.976562 1242.933594 337.976562 885.101562 C 337.976562 783.148438 374.457031 699.835938 434.203125 634.4375 C 424.503906 610.914062 392.542969 515.933594 443.246094 387.296875 C 443.246094 387.296875 521.667969 362.195312 700.128906 483.023438 C 774.617188 462.328125 854.507812 451.957031 933.875 451.605469 C 1013.238281 451.957031 1093.191406 462.328125 1167.824219 483.023438 C 1346.074219 362.195312 1424.382812 387.296875 1424.382812 387.296875 C 1475.214844 515.933594 1443.238281 610.914062 1433.539062 634.4375 C 1493.414062 699.835938 1529.648438 783.140625 1529.648438 885.101562 C 1529.648438 1243.785156 1311.179688 1322.769531 1103.230469 1345.882812 C 1136.726562 1374.867188 1166.570312 1431.703125 1166.570312 1518.824219 C 1166.570312 1643.773438 1165.488281 1744.34375 1165.488281 1775.105469 C 1165.488281 1799.957031 1182.296875 1829.078125 1229.640625 1819.90625 C 1600.496094 1696.28125 1867.742188 1346.351562 1867.742188 933.875 C 1867.742188 418.101562 1449.625 0 933.875 0 "/>
<path style=" stroke:none;fill-rule:nonzero;fill:rgb(8.627451%,8.627451%,7.843137%);fill-opacity:1;" d="M 349.769531 1330.328125 C 347.71875 1334.964844 340.40625 1336.355469 333.765625 1333.175781 C 326.988281 1330.128906 323.179688 1323.800781 325.378906 1319.144531 C 327.390625 1314.367188 334.703125 1313.035156 341.460938 1316.242188 C 348.25 1319.28125 352.117188 1325.667969 349.769531 1330.328125 M 395.707031 1371.3125 C 391.253906 1375.445312 382.542969 1373.523438 376.632812 1367 C 370.523438 1360.488281 369.382812 1351.789062 373.902344 1347.589844 C 378.492188 1343.46875 386.9375 1345.394531 393.0625 1351.910156 C 399.171875 1358.496094 400.355469 1367.144531 395.699219 1371.320312 M 427.222656 1423.753906 C 421.492188 1427.730469 412.132812 1424.003906 406.355469 1415.699219 C 400.632812 1407.398438 400.632812 1397.4375 406.480469 1393.445312 C 412.28125 1389.457031 421.492188 1393.042969 427.355469 1401.285156 C 433.066406 1409.730469 433.066406 1419.691406 427.214844 1423.761719 M 480.511719 1484.496094 C 475.394531 1490.132812 464.496094 1488.625 456.511719 1480.921875 C 448.351562 1473.390625 446.074219 1462.703125 451.207031 1457.058594 C 456.386719 1451.402344 467.351562 1452.992188 475.394531 1460.632812 C 483.5 1468.148438 485.976562 1478.914062 480.519531 1484.496094 M 549.390625 1505.003906 C 547.140625 1512.3125 536.636719 1515.636719 526.0625 1512.53125 C 515.5 1509.332031 508.585938 1500.761719 510.71875 1493.371094 C 512.914062 1486.011719 523.460938 1482.546875 534.117188 1485.871094 C 544.664062 1489.058594 551.59375 1497.5625 549.398438 1505.003906 M 627.789062 1513.695312 C 628.050781 1521.402344 619.078125 1527.789062 607.976562 1527.925781 C 596.808594 1528.167969 587.777344 1521.9375 587.660156 1514.363281 C 587.660156 1506.585938 596.425781 1500.257812 607.589844 1500.074219 C 618.691406 1499.851562 627.789062 1506.042969 627.789062 1513.695312 M 704.796875 1510.746094 C 706.128906 1518.257812 698.40625 1525.980469 687.386719 1528.03125 C 676.546875 1530.007812 666.511719 1525.371094 665.125 1517.921875 C 663.78125 1510.21875 671.644531 1502.503906 682.464844 1500.503906 C 693.507812 1498.585938 703.390625 1503.105469 704.796875 1510.746094 "/>
</g>
</svg>
