<?xml version="1.0" encoding="UTF-8"?>
<svg xmlns="http://www.w3.org/2000/svg" xmlns:xlink="http://www.w3.org/1999/xlink" width="2500px" height="2500px" viewBox="0 0 1875 1875" version="1.1">
<g id="surface1">
<rect x="0" y="0" width="1875" height="1875" style="fill:rgb(100%,100%,100%);fill-opacity:1;stroke:none;"/>
<path style=" stroke:none;fill-rule:evenodd;fill:rgb(19.215686%,45.490196%,72.54902%);fill-opacity:1;" d="M 781.804688 989.550781 C 781.804688 989.550781 737.019531 1015.609375 813.710938 1024.414062 C 906.644531 1035.027344 954.113281 1033.5 1056.496094 1014.132812 C 1056.496094 1014.132812 1083.449219 1031.007812 1121.074219 1045.609375 C 891.5 1143.980469 601.507812 1039.917969 781.804688 989.550781 Z M 753.742188 861.179688 C 753.742188 861.179688 703.5 898.367188 780.257812 906.304688 C 879.535156 916.558594 957.898438 917.394531 1093.585938 891.285156 C 1093.585938 891.285156 1112.320312 910.300781 1141.804688 920.691406 C 864.273438 1001.867188 555.175781 927.082031 753.742188 861.179688 Z M 753.742188 861.179688 "/>
<path style=" stroke:none;fill-rule:evenodd;fill:rgb(79.215686%,19.215686%,19.607843%);fill-opacity:1;" d="M 990.210938 643.394531 C 1046.804688 708.539062 975.378906 767.125 975.378906 767.125 C 975.378906 767.125 1119.011719 692.992188 1053.042969 600.128906 C 991.449219 513.5625 944.203125 470.558594 1199.941406 322.257812 C 1199.933594 322.246094 798.496094 422.476562 990.210938 643.394531 Z M 990.210938 643.394531 "/>
<path style=" stroke:none;fill-rule:evenodd;fill:rgb(19.215686%,45.490196%,72.54902%);fill-opacity:1;" d="M 1293.832031 1084.507812 C 1293.832031 1084.507812 1326.980469 1111.84375 1257.316406 1132.980469 C 1124.839844 1173.105469 705.835938 1185.207031 589.445312 1134.574219 C 547.636719 1116.367188 626.078125 1091.125 650.757812 1085.792969 C 676.496094 1080.230469 691.183594 1081.242188 691.183594 1081.242188 C 644.660156 1048.480469 390.453125 1145.585938 562.082031 1173.445312 C 1030.085938 1249.328125 1415.207031 1139.285156 1293.832031 1084.507812 Z M 803.351562 728.160156 C 803.351562 728.160156 590.246094 778.789062 727.894531 797.191406 C 786.035156 804.964844 901.847656 803.175781 1009.8125 794.121094 C 1098.019531 786.714844 1186.558594 770.878906 1186.558594 770.878906 C 1186.558594 770.878906 1155.480469 784.21875 1132.960938 799.566406 C 916.519531 856.5 498.457031 829.984375 618.824219 771.785156 C 720.589844 722.554688 803.351562 728.160156 803.351562 728.160156 Z M 1185.671875 941.839844 C 1405.675781 827.542969 1303.957031 717.683594 1232.9375 732.488281 C 1215.574219 736.113281 1207.785156 739.246094 1207.785156 739.246094 C 1207.785156 739.246094 1214.261719 729.113281 1226.578125 724.753906 C 1367.050781 675.386719 1475.0625 870.390625 1181.285156 947.617188 C 1181.277344 947.617188 1184.660156 944.5625 1185.671875 941.839844 Z M 1185.671875 941.839844 "/>
<path style=" stroke:none;fill-rule:evenodd;fill:rgb(79.215686%,19.215686%,19.607843%);fill-opacity:1;" d="M 1053.042969 82.722656 C 1053.042969 82.722656 1174.855469 204.613281 937.472656 391.992188 C 747.097656 542.355469 894.066406 628.0625 937.414062 726.027344 C 826.269531 625.769531 744.742188 537.492188 799.429688 455.355469 C 879.71875 334.785156 1102.191406 276.3125 1053.042969 82.722656 Z M 1053.042969 82.722656 "/>
<path style=" stroke:none;fill-rule:evenodd;fill:rgb(19.215686%,45.490196%,72.54902%);fill-opacity:1;" d="M 824.992188 1251.652344 C 1036.136719 1265.15625 1360.433594 1244.152344 1368.128906 1144.226562 C 1368.128906 1144.226562 1353.363281 1182.101562 1193.609375 1212.152344 C 1013.375 1246.078125 791.035156 1242.128906 659.210938 1220.371094 C 659.210938 1220.371094 686.222656 1242.722656 824.992188 1251.652344 Z M 824.992188 1251.652344 "/>
<path style=" stroke:none;fill-rule:evenodd;fill:rgb(79.215686%,19.215686%,19.607843%);fill-opacity:1;" d="M 1358.371094 1430.851562 L 1351.953125 1430.851562 L 1351.953125 1427.25 L 1369.277344 1427.25 L 1369.277344 1430.851562 L 1362.855469 1430.851562 L 1362.855469 1448.828125 L 1358.371094 1448.828125 Z M 1392.941406 1431.746094 L 1392.863281 1431.746094 L 1386.484375 1448.816406 L 1383.554688 1448.816406 L 1377.214844 1431.746094 L 1377.136719 1431.746094 L 1377.136719 1448.816406 L 1372.875 1448.816406 L 1372.875 1427.242188 L 1379.128906 1427.242188 L 1385.003906 1442.503906 L 1390.878906 1427.242188 L 1397.078125 1427.242188 L 1397.078125 1448.816406 L 1392.953125 1448.816406 L 1392.953125 1431.746094 Z M 790.394531 1633.421875 C 770.480469 1650.679688 749.433594 1660.386719 730.53125 1660.386719 C 703.605469 1660.386719 688.996094 1644.210938 688.996094 1618.324219 C 688.996094 1590.300781 704.636719 1569.796875 767.242188 1569.796875 L 790.382812 1569.796875 L 790.382812 1633.421875 Z M 845.351562 1695.425781 L 845.351562 1503.484375 C 845.351562 1454.429688 817.378906 1422.058594 749.9375 1422.058594 C 710.589844 1422.058594 676.097656 1431.773438 648.054688 1444.15625 L 656.128906 1478.15625 C 678.21875 1470.042969 706.777344 1462.523438 734.8125 1462.523438 C 773.664062 1462.523438 790.382812 1478.15625 790.382812 1510.515625 L 790.382812 1534.785156 L 770.96875 1534.785156 C 676.59375 1534.785156 634.007812 1571.402344 634.007812 1626.449219 C 634.007812 1673.878906 662.070312 1700.84375 714.898438 1700.84375 C 748.859375 1700.84375 774.226562 1686.824219 797.914062 1666.308594 L 802.222656 1695.425781 Z M 1028.78125 1695.425781 L 960.253906 1695.425781 L 877.734375 1426.941406 L 937.597656 1426.941406 L 988.8125 1591.925781 L 1000.210938 1641.496094 C 1026.046875 1569.796875 1044.382812 1497.007812 1053.558594 1426.941406 L 1111.765625 1426.941406 C 1096.183594 1515.34375 1068.109375 1612.402344 1028.78125 1695.425781 Z M 1291.777344 1633.421875 C 1271.808594 1650.679688 1250.757812 1660.386719 1231.898438 1660.386719 C 1204.972656 1660.386719 1190.382812 1644.210938 1190.382812 1618.324219 C 1190.382812 1590.300781 1206.03125 1569.796875 1268.597656 1569.796875 L 1291.777344 1569.796875 Z M 1346.757812 1695.425781 L 1346.757812 1503.484375 C 1346.757812 1454.429688 1318.695312 1422.058594 1251.324219 1422.058594 C 1211.9375 1422.058594 1177.453125 1431.773438 1149.410156 1444.15625 L 1157.484375 1478.15625 C 1179.574219 1470.042969 1208.191406 1462.523438 1236.234375 1462.523438 C 1275.027344 1462.523438 1291.769531 1478.15625 1291.769531 1510.515625 L 1291.769531 1534.785156 L 1272.351562 1534.785156 C 1177.96875 1534.785156 1135.414062 1571.402344 1135.414062 1626.449219 C 1135.414062 1673.878906 1163.417969 1700.84375 1216.257812 1700.84375 C 1250.242188 1700.84375 1275.574219 1686.824219 1299.316406 1666.308594 L 1303.644531 1695.425781 Z M 573.746094 1741.046875 C 558.085938 1763.933594 532.753906 1782.054688 505.0625 1792.277344 L 477.921875 1760.316406 C 499.019531 1749.488281 517.09375 1732.007812 525.507812 1715.746094 C 532.753906 1701.25 535.78125 1682.613281 535.78125 1638.003906 L 535.78125 1331.445312 L 594.195312 1331.445312 L 594.195312 1633.773438 C 594.195312 1693.441406 589.425781 1717.554688 573.746094 1741.046875 Z M 573.746094 1741.046875 "/>
</g>
</svg>
