<?xml version="1.0" encoding="UTF-8"?>
<svg xmlns="http://www.w3.org/2000/svg" xmlns:xlink="http://www.w3.org/1999/xlink" width="2500px" height="2500px" viewBox="0 0 1875 1875" version="1.1">
<defs>
<linearGradient id="linear0" gradientUnits="userSpaceOnUse" x1="0.5" y1="0" x2="0.5" y2="1" gradientTransform="matrix(1875,0,0,1875,0,0)">
<stop offset="0" style="stop-color:rgb(0%,56.862745%,90.196078%);stop-opacity:1;"/>
<stop offset="1" style="stop-color:rgb(0%,47.45098%,74.901961%);stop-opacity:1;"/>
</linearGradient>
</defs>
<g id="surface1">
<path style=" stroke:none;fill-rule:nonzero;fill:url(#linear0);" d="M 183.105469 0 L 1691.894531 0 C 1793.019531 0 1875 81.980469 1875 183.105469 L 1875 1691.894531 C 1875 1793.019531 1793.019531 1875 1691.894531 1875 L 183.105469 1875 C 81.980469 1875 0 1793.019531 0 1691.894531 L 0 183.105469 C 0 81.980469 81.980469 0 183.105469 0 Z M 183.105469 0 "/>
<path style=" stroke:none;fill-rule:nonzero;fill:rgb(100%,100%,100%);fill-opacity:1;" d="M 1147.265625 243.75 L 1543.359375 243.75 C 1591.898438 243.75 1631.25 283.101562 1631.25 331.640625 L 1631.25 976.171875 C 1631.25 1024.710938 1591.898438 1064.0625 1543.359375 1064.0625 L 1147.265625 1064.0625 C 1098.726562 1064.0625 1059.375 1024.710938 1059.375 976.171875 L 1059.375 331.640625 C 1059.375 283.101562 1098.726562 243.75 1147.265625 243.75 Z M 1147.265625 243.75 "/>
<path style=" stroke:none;fill-rule:nonzero;fill:rgb(100%,100%,100%);fill-opacity:1;" d="M 331.640625 243.75 L 727.734375 243.75 C 776.273438 243.75 815.625 283.101562 815.625 331.640625 L 815.625 1444.921875 C 815.625 1493.460938 776.273438 1532.8125 727.734375 1532.8125 L 331.640625 1532.8125 C 283.101562 1532.8125 243.75 1493.460938 243.75 1444.921875 L 243.75 331.640625 C 243.75 283.101562 283.101562 243.75 331.640625 243.75 Z M 331.640625 243.75 "/>
</g>
</svg>
