<?xml version="1.0" encoding="UTF-8"?>
<svg xmlns="http://www.w3.org/2000/svg" xmlns:xlink="http://www.w3.org/1999/xlink" width="2500px" height="2455px" viewBox="0 0 1874 1841" version="1.1">
<g id="surface1">
<path style=" stroke:none;fill-rule:nonzero;fill:rgb(14.117647%,53.72549%,79.215686%);fill-opacity:1;" d="M 53.558594 658.109375 C 53.558594 658.109375 9.195312 626.117188 62.429688 583.402344 L 186.457031 472.453125 C 186.457031 472.453125 221.945312 435.101562 259.46875 467.648438 L 1404 1334.523438 L 1404 1750.207031 C 1404 1750.207031 1403.445312 1815.480469 1319.710938 1808.269531 Z M 53.558594 658.109375 "/>
<path style=" stroke:none;fill-rule:nonzero;fill:rgb(6.27451%,43.921569%,70.196078%);fill-opacity:1;" d="M 348.5625 926.046875 L 53.558594 1194.355469 C 53.558594 1194.355469 23.242188 1216.917969 53.558594 1257.226562 L 190.523438 1381.859375 C 190.523438 1381.859375 223.054688 1416.808594 271.113281 1377.050781 L 583.863281 1139.808594 Z M 348.5625 926.046875 "/>
<path style=" stroke:none;fill-rule:nonzero;fill:rgb(3.137255%,46.666667%,72.54902%);fill-opacity:1;" d="M 866.484375 928.265625 L 1407.511719 514.984375 L 1404 101.515625 C 1404 101.515625 1380.894531 11.28125 1303.816406 58.246094 L 583.863281 713.765625 Z M 866.484375 928.265625 "/>
<path style=" stroke:none;fill-rule:nonzero;fill:rgb(23.529412%,60%,83.137255%);fill-opacity:1;" d="M 1319.710938 1808.824219 C 1351.132812 1841 1389.210938 1830.460938 1389.210938 1830.460938 L 1810.832031 1622.617188 C 1864.804688 1585.820312 1857.226562 1540.144531 1857.226562 1540.144531 L 1857.226562 299.003906 C 1857.226562 244.457031 1801.40625 225.59375 1801.40625 225.59375 L 1435.976562 49.371094 C 1356.125 0 1303.816406 58.246094 1303.816406 58.246094 C 1303.816406 58.246094 1371.097656 9.800781 1404 101.515625 L 1404 1742.625 C 1404 1753.90625 1401.59375 1765 1396.789062 1774.984375 C 1387.179688 1794.402344 1366.292969 1812.523438 1316.199219 1804.941406 Z M 1319.710938 1808.824219 "/>
</g>
</svg>
